PathFileType   4   (X/Y/Z)
DataRate	CameraRate	NumFrames	NumMarkers	Units	OrigDataRate	OrigDataStartFrame	OrigNumFrames
120.0	120.0	10	37	mm	120.0	52	136
Frame#	Time	midhip	hip_r	hip_l	knee_r	knee_l	ankle_r	ankle_l	midasis	asis_r	asis_l	psis_r	psis_l	epicondLat_r	epicondLat_l	epicondMed_r	epicondMed_l	malleolusLat_r	malleolusLat_l	malleolusMedv_r	malleolusMedv_l	neck	subclavicle_r	subclavicle_l	sternalnotch	xyphoidprocess	thighwand_r	thighwand_l	upperleg1_r	upperleg1_l	upperleg2_r	upperleg2_l	shankwand_r	shankwand_l	lowerleg1_r	lowerleg1_l	toe_r	toe_l
 	 	X1	Y1	Z1	X2	Y2	Z2	X3	Y3	Z3	X4	Y4	Z4	X5	Y5	Z5	X6	Y6	Z6	X7	Y7	Z7	X8	Y8	Z8	X9	Y9	Z9	X10	Y10	Z10	X11	Y11	Z11	X12	Y12	Z12	X13	Y13	Z13	X14	Y14	Z14	X15	Y15	Z15	X16	Y16	Z16	X17	Y17	Z17	X18	Y18	Z18	X19	Y19	Z19	X20	Y20	Z20	X21	Y21	Z21	X22	Y22	Z22	X23	Y23	Z23	X24	Y24	Z24	X25	Y25	Z25	X26	Y26	Z26	X27	Y27	Z27	X28	Y28	Z28	X29	Y29	Z29	X30	Y30	Z30	X31	Y31	Z31	X32	Y32	Z32	X33	Y33	Z33	X34	Y34	Z34	X35	Y35	Z35	X36	Y36	Z36	X37	Y37	Z37

	52	0.55833	431.573	665.837	-234.095	427.888	672.572	-166.504	425.023	671.347	-292.295	326.479	383.556	-192.062	557.766	372.695	-282.900	204.723	74.301	-195.584	709.143	84.662	-306.868	492.639	734.926	-231.520	494.775	735.839	-137.734	490.503	734.012	-325.306	350.379	776.047	-216.596	347.980	767.160	-270.887	331.305	377.450	-142.166	550.196	367.784	-332.079	318.524	386.150	-241.000	572.778	370.836	-229.537	200.809	75.464	-162.333	693.468	78.937	-337.063	203.866	85.505	-221.520	711.963	95.498	-278.836	396.627	1121.025	-233.670	479.626	1074.374	-172.699	470.711	1074.778	-302.401	469.072	1063.426	-239.712	487.188	920.322	-240.686	369.716	453.939	-58.150	629.384	513.884	-340.293	409.119	510.270	-121.498	547.750	541.482	-277.990	394.369	430.241	-146.458	577.897	460.190	-265.999	228.681	173.323	-85.437	718.091	210.941	-363.755	253.443	223.691	-143.823	649.893	237.286	-322.333	294.322	38.535	-197.929	796.923	101.059	-334.213
	53	0.56667	439.745	664.970	-234.941	436.101	671.584	-167.356	433.400	670.501	-293.151	332.608	383.242	-192.526	565.368	371.837	-282.758	205.814	75.885	-195.181	715.950	83.176	-305.806	500.933	734.015	-232.216	502.948	734.822	-138.362	498.918	733.207	-326.070	358.405	775.194	-217.356	356.137	766.317	-271.647	337.380	377.172	-142.620	558.230	366.969	-332.005	325.070	385.714	-241.541	580.328	370.503	-229.288	201.950	77.192	-161.930	700.378	77.468	-336.058	205.239	87.019	-221.166	718.360	93.757	-277.659	404.798	1120.104	-235.109	487.751	1073.482	-174.001	479.019	1073.655	-303.757	477.673	1062.442	-241.141	495.331	919.303	-241.717	376.345	453.539	-58.642	637.858	513.158	-339.503	416.045	509.580	-122.095	555.715	541.122	-278.100	401.026	429.626	-146.986	585.783	459.822	-265.751	231.533	174.894	-85.375	725.594	209.319	-362.828	257.132	224.526	-143.952	657.440	235.797	-321.651	294.712	38.641	-197.756	803.851	99.155	-332.874
	54	0.57500	448.106	664.191	-235.828	444.441	670.671	-168.242	441.976	669.758	-294.043	339.143	382.882	-193.045	573.011	371.025	-282.666	207.049	77.629	-194.791	721.684	81.221	-304.628	509.367	733.218	-232.895	511.207	733.899	-138.969	507.527	732.537	-326.821	366.577	774.388	-218.165	364.462	765.539	-272.462	343.817	376.869	-143.122	566.305	366.205	-331.979	331.707	385.419	-242.174	588.064	370.253	-229.171	203.215	79.098	-161.544	706.234	75.594	-334.958	206.660	88.727	-220.856	723.427	91.334	-276.333	413.002	1119.302	-236.637	496.019	1072.762	-175.452	487.311	1072.620	-305.139	485.927	1061.552	-242.495	503.582	918.417	-242.754	383.185	453.176	-59.176	646.500	512.404	-338.762	423.182	508.907	-122.708	563.874	540.874	-278.278	407.820	429.001	-147.601	593.860	459.538	-265.602	234.554	176.628	-85.360	732.593	207.123	-361.729	261.039	225.508	-144.192	664.493	233.912	-320.939	295.159	38.760	-197.578	809.777	96.324	-331.129
	55	0.58333	456.637	663.495	-236.747	452.898	669.843	-169.152	450.736	669.119	-294.960	346.098	382.471	-193.610	580.618	370.242	-282.613	208.453	79.546	-194.413	726.520	78.936	-303.376	517.942	732.527	-233.555	519.557	733.068	-139.556	516.326	731.986	-327.555	374.919	773.643	-219.037	372.968	764.849	-273.345	350.621	376.540	-143.664	574.320	365.466	-331.985	338.303	385.256	-242.733	595.995	369.897	-229.265	204.621	81.199	-161.174	711.219	73.441	-333.805	208.293	90.608	-220.597	727.252	88.232	-274.826	421.260	1118.614	-238.145	504.413	1072.149	-176.958	495.449	1071.750	-306.559	494.270	1060.765	-243.885	511.781	917.666	-243.931	390.216	452.866	-59.747	655.244	511.545	-338.112	430.763	508.226	-123.381	572.177	540.573	-278.342	414.717	428.268	-148.210	602.067	459.235	-265.535	237.736	178.541	-85.390	739.136	204.511	-360.479	265.216	226.562	-144.471	670.937	231.603	-320.123	295.670	38.895	-197.395	814.868	92.735	-329.072
	56	0.59167	465.357	662.880	-237.694	461.468	669.111	-170.081	459.663	668.589	-295.896	353.490	382.004	-194.210	588.107	369.487	-282.591	210.054	81.643	-194.040	730.662	76.489	-302.089	526.659	731.935	-234.199	528.009	732.325	-140.127	525.310	731.544	-328.271	383.449	772.978	-219.973	381.657	764.277	-274.298	357.801	376.183	-144.232	582.177	364.742	-332.010	346.025	385.080	-243.587	603.929	369.451	-229.346	206.191	83.506	-160.816	715.543	71.166	-332.640	210.234	92.655	-220.361	729.940	84.623	-273.150	429.631	1117.950	-239.615	512.845	1071.531	-178.453	503.898	1070.952	-307.862	502.697	1060.080	-245.315	520.223	916.955	-245.115	397.430	452.617	-60.347	664.013	510.524	-337.589	438.907	507.547	-124.105	580.607	540.181	-278.327	422.310	427.740	-148.762	610.300	458.869	-265.468	241.085	180.649	-85.457	745.295	201.675	-359.096	269.633	227.739	-144.739	676.882	228.936	-319.229	296.252	39.044	-197.207	819.313	88.602	-326.826
	57	0.60000	474.253	662.350	-238.664	470.150	668.483	-171.029	468.741	668.177	-296.850	361.337	381.471	-194.831	595.410	368.780	-282.594	211.884	83.925	-193.663	734.315	74.056	-300.804	535.524	731.435	-234.833	536.578	731.665	-140.692	534.470	731.206	-328.975	392.169	772.414	-220.961	390.516	763.858	-275.309	365.373	375.793	-144.814	589.791	364.048	-332.051	354.122	384.872	-244.400	611.692	368.860	-229.274	207.957	86.028	-160.461	719.424	68.934	-331.500	212.435	94.863	-220.136	731.683	80.783	-271.443	438.142	1117.301	-241.115	521.360	1071.034	-179.945	512.518	1070.208	-309.200	511.202	1059.498	-246.783	528.893	916.339	-246.233	404.833	452.432	-60.970	672.730	509.319	-337.214	447.328	506.872	-124.861	589.232	539.623	-278.431	430.199	427.342	-149.219	618.545	458.267	-265.412	244.629	182.955	-85.550	751.161	198.816	-357.592	274.249	229.077	-145.041	682.317	226.038	-318.317	296.910	39.206	-197.016	823.306	84.155	-324.515
	58	0.60833	483.327	661.919	-239.654	478.936	667.966	-172.002	477.939	667.900	-297.826	369.654	380.864	-195.454	602.476	368.160	-282.625	213.979	86.397	-193.270	737.655	71.794	-299.550	544.528	731.030	-235.471	545.274	731.080	-141.262	543.782	730.980	-329.680	401.064	771.980	-221.972	399.513	763.631	-276.349	373.357	375.366	-145.391	597.114	363.422	-332.111	362.278	384.196	-244.892	619.432	368.139	-228.896	209.961	88.768	-160.097	723.048	66.894	-330.418	214.837	97.221	-220.001	732.617	76.794	-269.714	446.639	1116.702	-242.687	529.969	1070.698	-181.470	520.989	1069.696	-310.811	519.773	1059.040	-248.286	537.731	915.937	-247.625	412.442	452.310	-61.609	681.323	507.960	-336.984	455.680	506.327	-125.624	598.101	538.855	-278.764	438.135	426.742	-149.579	626.914	457.353	-265.348	248.419	185.456	-85.653	756.828	196.117	-355.975	279.103	230.469	-145.409	687.041	222.911	-317.238	297.646	39.374	-196.824	827.017	79.613	-322.254
	59	0.61667	492.519	661.609	-240.671	487.814	667.567	-173.012	487.220	667.781	-298.839	378.454	380.175	-196.055	609.286	367.680	-282.694	216.381	89.059	-192.849	740.802	69.814	-298.351	553.653	730.725	-236.130	554.098	730.564	-141.856	553.208	730.886	-330.404	410.103	771.701	-222.964	408.607	763.630	-277.378	381.775	374.893	-145.942	604.136	362.922	-332.200	371.212	382.852	-245.190	626.919	367.275	-228.290	212.255	91.721	-159.711	726.546	65.153	-329.420	217.603	99.700	-219.882	733.054	72.852	-268.018	455.012	1116.192	-244.357	538.605	1070.421	-183.053	529.639	1069.248	-312.427	528.395	1058.740	-249.820	546.822	915.608	-249.050	420.287	452.243	-62.258	689.739	506.532	-336.871	463.886	506.018	-126.312	607.212	537.914	-279.204	446.459	426.095	-149.776	635.277	456.162	-265.259	252.519	188.140	-85.750	762.374	193.711	-354.258	284.299	231.864	-145.751	691.592	220.185	-315.972	298.462	39.541	-196.637	830.559	75.154	-320.127
	60	0.62500	501.765	661.445	-241.726	496.764	667.289	-174.077	496.533	667.848	-299.904	387.743	379.395	-196.603	615.848	367.397	-282.816	219.137	91.907	-192.388	743.809	68.174	-297.230	562.865	730.535	-236.832	563.039	730.116	-142.494	562.692	730.953	-331.172	419.239	771.602	-223.888	417.744	763.881	-278.344	390.651	374.368	-146.438	610.891	362.612	-332.339	380.713	381.352	-245.349	633.289	366.153	-228.072	214.897	94.879	-159.291	729.971	63.764	-328.524	220.704	102.388	-219.618	738.747	72.457	-267.452	463.450	1115.892	-246.154	547.163	1070.292	-184.637	538.478	1068.864	-314.019	537.052	1058.640	-251.384	555.813	915.374	-250.326	428.404	452.221	-62.907	697.946	505.168	-336.829	472.252	505.763	-126.921	616.264	536.900	-279.585	455.182	425.638	-149.782	643.060	454.781	-265.320	257.001	190.983	-85.820	767.841	191.662	-352.476	289.950	233.396	-146.063	696.881	219.112	-314.910	299.365	39.697	-196.458	833.982	70.903	-318.189
	61	0.63333	510.998	661.457	-242.832	505.757	667.139	-175.215	505.820	668.126	-301.040	397.522	378.514	-197.064	622.199	367.357	-283.013	222.302	94.929	-191.880	746.671	66.875	-296.209	572.121	730.476	-237.601	572.073	729.735	-143.199	572.168	731.216	-332.004	428.425	771.701	-224.692	426.868	764.396	-279.198	400.002	373.783	-146.848	617.445	362.548	-332.553	391.359	379.584	-245.689	638.234	365.092	-228.351	217.950	98.222	-158.828	733.304	62.723	-327.743	224.054	105.383	-219.205	744.045	71.761	-266.800	472.143	1116.000	-248.072	555.654	1070.460	-186.132	547.288	1068.838	-315.712	545.733	1058.772	-252.959	564.373	915.437	-251.653	436.832	452.231	-63.542	705.943	504.022	-336.804	481.158	505.383	-127.581	624.782	536.080	-279.982	464.649	425.222	-149.733	649.898	453.546	-265.563	261.939	193.960	-85.843	773.224	189.965	-350.685	296.138	235.139	-146.361	702.862	219.640	-314.174	300.365	39.834	-196.293	837.265	66.931	-316.461
